<svg width="155" height="40" viewBox="0 0 155 40" fill="none" xmlns="http://www.w3.org/2000/svg">
<rect width="40" height="40" fill="#94447D"/>
<path d="M19.2467 25.6667H17.5417L10.5192 14.8825H10.4489C10.5426 16.1481 10.5895 17.3083 10.5895 18.363V25.6667H9.20964V12.8171H10.8971L17.902 23.5573H17.9723C17.9606 23.3991 17.9342 22.8923 17.8932 22.0368C17.8522 21.1755 17.8376 20.5602 17.8493 20.1911V12.8171H19.2467V25.6667ZM24.2741 20.3229V25.6667H22.7799V12.8171H26.3044C27.8805 12.8171 29.0436 13.1188 29.7936 13.7223C30.5495 14.3259 30.9274 15.2341 30.9274 16.4469C30.9274 18.1462 30.0661 19.2946 28.3434 19.8923L31.8327 25.6667H30.0661L26.9548 20.3229H24.2741ZM24.2741 19.0397H26.3219C27.3766 19.0397 28.1501 18.8317 28.6423 18.4157C29.1344 17.9938 29.3805 17.3639 29.3805 16.526C29.3805 15.6764 29.1286 15.0641 28.6247 14.6891C28.1266 14.3141 27.3239 14.1266 26.2165 14.1266H24.2741V19.0397Z" fill="white"/>
<path d="M60.8672 27H59.1621L52.1396 16.2158H52.0693C52.1631 17.4814 52.21 18.6416 52.21 19.6963V27H50.8301V14.1504H52.5176L59.5225 24.8906H59.5928C59.5811 24.7324 59.5547 24.2256 59.5137 23.3701C59.4727 22.5088 59.458 21.8936 59.4697 21.5244V14.1504H60.8672V27ZM70.1045 27L69.8145 25.6289H69.7441C69.2637 26.2324 68.7832 26.6426 68.3027 26.8594C67.8281 27.0703 67.2334 27.1758 66.5186 27.1758C65.5635 27.1758 64.8135 26.9297 64.2686 26.4375C63.7295 25.9453 63.46 25.2451 63.46 24.3369C63.46 22.3916 65.0156 21.3721 68.127 21.2783L69.7617 21.2256V20.6279C69.7617 19.8721 69.5977 19.3154 69.2695 18.958C68.9473 18.5947 68.4287 18.4131 67.7139 18.4131C66.9111 18.4131 66.0029 18.6592 64.9893 19.1514L64.541 18.0352C65.0156 17.7773 65.5342 17.5752 66.0967 17.4287C66.665 17.2822 67.2334 17.209 67.8018 17.209C68.9502 17.209 69.7998 17.4639 70.3506 17.9736C70.9072 18.4834 71.1855 19.3008 71.1855 20.4258V27H70.1045ZM66.8086 25.9717C67.7168 25.9717 68.4287 25.7227 68.9443 25.2246C69.4658 24.7266 69.7266 24.0293 69.7266 23.1328V22.2627L68.2676 22.3242C67.1074 22.3652 66.2695 22.5469 65.7539 22.8691C65.2441 23.1855 64.9893 23.6807 64.9893 24.3545C64.9893 24.8818 65.1475 25.2832 65.4639 25.5586C65.7861 25.834 66.2344 25.9717 66.8086 25.9717ZM75.6592 27H74.2002V17.3672H75.6592V27ZM74.0771 14.7568C74.0771 14.4229 74.1592 14.1797 74.3232 14.0273C74.4873 13.8691 74.6924 13.79 74.9385 13.79C75.1729 13.79 75.375 13.8691 75.5449 14.0273C75.7148 14.1855 75.7998 14.4287 75.7998 14.7568C75.7998 15.085 75.7148 15.3311 75.5449 15.4951C75.375 15.6533 75.1729 15.7324 74.9385 15.7324C74.6924 15.7324 74.4873 15.6533 74.3232 15.4951C74.1592 15.3311 74.0771 15.085 74.0771 14.7568ZM85.3447 27V20.7686C85.3447 19.9834 85.166 19.3975 84.8086 19.0107C84.4512 18.624 83.8916 18.4307 83.1299 18.4307C82.1221 18.4307 81.3838 18.7031 80.915 19.248C80.4463 19.793 80.2119 20.6924 80.2119 21.9463V27H78.7529V17.3672H79.9395L80.1768 18.6855H80.2471C80.5459 18.2109 80.9648 17.8447 81.5039 17.5869C82.043 17.3232 82.6436 17.1914 83.3057 17.1914C84.4658 17.1914 85.3389 17.4727 85.9248 18.0352C86.5107 18.5918 86.8037 19.4854 86.8037 20.7158V27H85.3447ZM95.7334 27L95.4434 25.6289H95.373C94.8926 26.2324 94.4121 26.6426 93.9316 26.8594C93.457 27.0703 92.8623 27.1758 92.1475 27.1758C91.1924 27.1758 90.4424 26.9297 89.8975 26.4375C89.3584 25.9453 89.0889 25.2451 89.0889 24.3369C89.0889 22.3916 90.6445 21.3721 93.7559 21.2783L95.3906 21.2256V20.6279C95.3906 19.8721 95.2266 19.3154 94.8984 18.958C94.5762 18.5947 94.0576 18.4131 93.3428 18.4131C92.54 18.4131 91.6318 18.6592 90.6182 19.1514L90.1699 18.0352C90.6445 17.7773 91.1631 17.5752 91.7256 17.4287C92.2939 17.2822 92.8623 17.209 93.4307 17.209C94.5791 17.209 95.4287 17.4639 95.9795 17.9736C96.5361 18.4834 96.8145 19.3008 96.8145 20.4258V27H95.7334ZM92.4375 25.9717C93.3457 25.9717 94.0576 25.7227 94.5732 25.2246C95.0947 24.7266 95.3555 24.0293 95.3555 23.1328V22.2627L93.8965 22.3242C92.7363 22.3652 91.8984 22.5469 91.3828 22.8691C90.873 23.1855 90.6182 23.6807 90.6182 24.3545C90.6182 24.8818 90.7764 25.2832 91.0928 25.5586C91.415 25.834 91.8633 25.9717 92.4375 25.9717ZM110.227 15.3018C108.814 15.3018 107.698 15.7734 106.878 16.7168C106.063 17.6543 105.656 18.9404 105.656 20.5752C105.656 22.2568 106.049 23.5576 106.834 24.4775C107.625 25.3916 108.75 25.8486 110.209 25.8486C111.105 25.8486 112.128 25.6875 113.276 25.3652V26.6748C112.386 27.0088 111.287 27.1758 109.98 27.1758C108.088 27.1758 106.626 26.6016 105.595 25.4531C104.569 24.3047 104.057 22.6729 104.057 20.5576C104.057 19.2334 104.303 18.0732 104.795 17.0771C105.293 16.0811 106.008 15.3135 106.939 14.7744C107.877 14.2354 108.979 13.9658 110.244 13.9658C111.592 13.9658 112.77 14.2119 113.777 14.7041L113.145 15.9873C112.172 15.5303 111.199 15.3018 110.227 15.3018ZM124.175 22.1748C124.175 23.7451 123.779 24.9727 122.988 25.8574C122.197 26.7363 121.104 27.1758 119.71 27.1758C118.849 27.1758 118.084 26.9736 117.416 26.5693C116.748 26.165 116.232 25.585 115.869 24.8291C115.506 24.0732 115.324 23.1885 115.324 22.1748C115.324 20.6045 115.717 19.3828 116.502 18.5098C117.287 17.6309 118.377 17.1914 119.771 17.1914C121.119 17.1914 122.188 17.6396 122.979 18.5361C123.776 19.4326 124.175 20.6455 124.175 22.1748ZM116.836 22.1748C116.836 23.4053 117.082 24.3428 117.574 24.9873C118.066 25.6318 118.79 25.9541 119.745 25.9541C120.7 25.9541 121.424 25.6348 121.916 24.9961C122.414 24.3516 122.663 23.4111 122.663 22.1748C122.663 20.9502 122.414 20.0215 121.916 19.3887C121.424 18.75 120.694 18.4307 119.728 18.4307C118.772 18.4307 118.052 18.7441 117.565 19.3711C117.079 19.998 116.836 20.9326 116.836 22.1748ZM133.298 25.708H133.219C132.545 26.6865 131.537 27.1758 130.195 27.1758C128.936 27.1758 127.954 26.7451 127.251 25.8838C126.554 25.0225 126.205 23.7979 126.205 22.21C126.205 20.6221 126.557 19.3887 127.26 18.5098C127.963 17.6309 128.941 17.1914 130.195 17.1914C131.502 17.1914 132.504 17.666 133.201 18.6152H133.315L133.254 17.9209L133.219 17.2441V13.3242H134.678V27H133.491L133.298 25.708ZM130.38 25.9541C131.376 25.9541 132.097 25.6846 132.542 25.1455C132.993 24.6006 133.219 23.7246 133.219 22.5176V22.21C133.219 20.8447 132.99 19.8721 132.533 19.292C132.082 18.7061 131.358 18.4131 130.362 18.4131C129.507 18.4131 128.851 18.7471 128.394 19.415C127.942 20.0771 127.717 21.0146 127.717 22.2275C127.717 23.458 127.942 24.3867 128.394 25.0137C128.845 25.6406 129.507 25.9541 130.38 25.9541ZM141.85 27.1758C140.426 27.1758 139.301 26.7422 138.475 25.875C137.654 25.0078 137.244 23.8037 137.244 22.2627C137.244 20.71 137.625 19.4766 138.387 18.5625C139.154 17.6484 140.183 17.1914 141.472 17.1914C142.679 17.1914 143.634 17.5898 144.337 18.3867C145.04 19.1777 145.392 20.2236 145.392 21.5244V22.4473H138.756C138.785 23.5781 139.069 24.4365 139.608 25.0225C140.153 25.6084 140.918 25.9014 141.902 25.9014C142.939 25.9014 143.965 25.6846 144.979 25.251V26.5518C144.463 26.7744 143.974 26.9326 143.511 27.0264C143.054 27.126 142.5 27.1758 141.85 27.1758ZM141.454 18.4131C140.681 18.4131 140.062 18.665 139.6 19.1689C139.143 19.6729 138.873 20.3701 138.791 21.2607H143.827C143.827 20.3408 143.622 19.6377 143.212 19.1514C142.802 18.6592 142.216 18.4131 141.454 18.4131ZM154.102 24.3721C154.102 25.2686 153.768 25.96 153.1 26.4463C152.432 26.9326 151.494 27.1758 150.287 27.1758C149.01 27.1758 148.014 26.9736 147.299 26.5693V25.2158C147.762 25.4502 148.257 25.6348 148.784 25.7695C149.317 25.9043 149.83 25.9717 150.322 25.9717C151.084 25.9717 151.67 25.8516 152.08 25.6113C152.49 25.3652 152.695 24.9932 152.695 24.4951C152.695 24.1201 152.531 23.8008 152.203 23.5371C151.881 23.2676 151.248 22.9512 150.305 22.5879C149.408 22.2539 148.77 21.9639 148.389 21.7178C148.014 21.4658 147.732 21.1816 147.545 20.8652C147.363 20.5488 147.272 20.1709 147.272 19.7314C147.272 18.9463 147.592 18.3281 148.23 17.877C148.869 17.4199 149.745 17.1914 150.858 17.1914C151.896 17.1914 152.909 17.4023 153.899 17.8242L153.381 19.0107C152.414 18.6123 151.538 18.4131 150.753 18.4131C150.062 18.4131 149.54 18.5215 149.188 18.7383C148.837 18.9551 148.661 19.2539 148.661 19.6348C148.661 19.8926 148.726 20.1123 148.854 20.2939C148.989 20.4756 149.203 20.6484 149.496 20.8125C149.789 20.9766 150.352 21.2139 151.184 21.5244C152.326 21.9404 153.097 22.3594 153.495 22.7812C153.899 23.2031 154.102 23.7334 154.102 24.3721Z" fill="#94447D"/>
</svg>
